<svg width="337" height="251" viewBox="0 0 337 251" fill="none" xmlns="http://www.w3.org/2000/svg">
<mask id="mask0_20_81" style="mask-type:luminance" maskUnits="userSpaceOnUse" x="0" y="0" width="337" height="251">
<path d="M0.666504 0H336.818V250.667H0.666504V0Z" fill="white"/>
</mask>
<g mask="url(#mask0_20_81)">
<mask id="mask1_20_81" style="mask-type:luminance" maskUnits="userSpaceOnUse" x="-53" y="-114" width="572" height="586">
<path d="M-52.5679 243.88L245.088 -113.547L518.146 113.844L220.489 471.271L-52.5679 243.88Z" fill="white"/>
</mask>
<g mask="url(#mask1_20_81)">
<mask id="mask2_20_81" style="mask-type:luminance" maskUnits="userSpaceOnUse" x="-53" y="-114" width="572" height="586">
<path d="M-52.5679 243.88L245.088 -113.547L518.146 113.844L220.489 471.271L-52.5679 243.88Z" fill="white"/>
</mask>
<g mask="url(#mask2_20_81)">
<path d="M243.516 24.4531C192.505 69.8646 147.802 54.6302 89.9531 90.3438C78.1927 97.8542 67.3125 106.484 57.3281 116.234C47.3385 125.984 38.4479 136.651 30.6614 148.234C18.9114 165.734 -6.099 202.938 2.47392 243.224C5.43746 257.099 12.1822 270.51 16.6562 279.391C23.651 293.594 32.2708 306.729 42.5156 318.802C51.1041 328.76 60.7604 337.542 71.4895 345.151C104.469 367.036 151.729 353.438 229.031 330.172C266.552 318.865 285.312 313.214 307.344 301.271C335.62 285.953 345.995 274.135 398.385 226.516C476.391 155.599 486.693 151.516 487.807 133.781C490.453 90.9271 433.911 56.5 402.906 37.6146C389.974 29.7448 306.797 -20.9635 256.802 12.276C251.297 16.0938 251.766 17.125 243.516 24.4531Z" fill="#38B6FF"/>
</g>
</g>
</g>
</svg>
