<svg width="110" height="110" viewBox="0 0 110 110" fill="none" xmlns="http://www.w3.org/2000/svg">
<path d="M81.2283 18.743C83.3252 17.7289 84.7775 15.5891 84.7775 13.1055C84.7775 11.4462 84.1184 9.85493 82.9451 8.68166C81.7719 7.50838 80.1806 6.84924 78.5213 6.84924C76.862 6.84924 75.2707 7.50838 74.0975 8.68166C72.9242 9.85493 72.265 11.4462 72.265 13.1055C72.265 15.6235 73.7518 17.7805 75.8916 18.7774C73.4166 32.1836 69.6182 42.161 55.4814 44.2922C55.4814 44.2922 59.2885 63.3274 77.0947 63.3274C94.901 63.3274 96.7057 44.4813 96.7057 44.4813C82.2596 45.2203 81.0393 27.0617 81.2283 18.743Z" fill="#F19534"/>
<path d="M29.8545 18.743C27.7576 17.7289 26.3053 15.5891 26.3053 13.1055C26.3053 11.4462 26.9644 9.85493 28.1377 8.68166C29.311 7.50838 30.9023 6.84924 32.5615 6.84924C34.2208 6.84924 35.8121 7.50838 36.9854 8.68166C38.1586 9.85493 38.8178 11.4462 38.8178 13.1055C38.8178 15.6235 37.3311 17.7805 35.1912 18.7774C37.6662 32.1836 41.4646 42.161 55.6014 44.2922C55.6014 44.2922 51.7943 63.3274 33.9881 63.3274C16.1818 63.3274 14.3857 44.4899 14.3857 44.4899C28.8232 45.2203 30.0436 27.0617 29.8545 18.743Z" fill="#F19534"/>
<path d="M76.854 63.3274C76.9313 63.3274 77.0087 63.336 77.086 63.336C81.9931 63.336 85.6798 61.9008 88.447 59.8297L76.854 63.3274Z" fill="#FFCA28"/>
<path d="M102.472 14.4891C99.6101 14.1024 96.8772 16.8266 96.3788 20.5563C96.0694 22.8852 96.6968 25.0594 97.9085 26.4602L95.846 35.011C95.846 35.011 92.6921 55.2149 76.7593 59.2024C64.0233 62.3907 59.4085 39.0758 58.2913 31.8742C60.7147 30.6711 62.3905 28.1789 62.3905 25.2828C62.3905 21.218 59.0991 17.9266 55.0343 17.9266C50.9694 17.9266 47.678 21.218 47.678 25.2828C47.678 28.1961 49.3796 30.7141 51.846 31.9C50.9608 39.0071 47.0593 61.5485 33.3093 59.1938C19.353 56.7961 13.2601 33.2922 11.8507 26.8985C13.5265 25.5235 14.4632 23.1 14.1194 20.4961C13.621 16.7578 10.6647 14.0766 7.51943 14.4977C4.37412 14.9188 2.23427 18.2875 2.73271 22.0172C3.09365 24.7328 4.76084 26.8899 6.84912 27.7063L17.7804 95.6227C17.7804 95.6227 27.3194 103.159 55.0343 103.159C82.7491 103.159 92.2882 95.6227 92.2882 95.6227L103.245 27.5258C105.016 26.5977 106.408 24.5094 106.751 21.9485C107.258 18.2102 105.342 14.8758 102.472 14.4891Z" fill="#FFCA28"/>
<path d="M55.3781 85.8601C60.0009 85.8601 63.7484 81.3931 63.7484 75.8828C63.7484 70.3725 60.0009 65.9055 55.3781 65.9055C50.7553 65.9055 47.0078 70.3725 47.0078 75.8828C47.0078 81.3931 50.7553 85.8601 55.3781 85.8601Z" fill="#26A69A"/>
<path d="M55.378 68.3719C55.7046 68.7328 55.9968 69.3945 55.378 70.6836C54.7593 71.9727 51.4249 73.7172 50.8147 74.0695C50.2046 74.4305 49.8007 74.2672 49.6116 74.1211C48.7093 73.3992 49.053 71.7664 49.6374 70.7695C50.8921 68.6125 53.5475 66.3867 55.378 68.3719Z" fill="#69F0AE"/>
<path d="M54.7595 79.6039C53.8142 80.0594 50.7118 81.443 51.7345 83.0844C52.3361 84.0555 53.5822 84.468 54.7251 84.5195C55.8681 84.5711 56.9939 84.2101 58.0079 83.6859C62.8204 81.1937 63.2072 74.6453 62.2704 74.1469C61.3079 73.6312 60.6548 74.9633 60.1564 75.5305C58.6408 77.2278 56.8073 78.6117 54.7595 79.6039Z" fill="#00796B"/>
<path d="M101.484 67.7187C102.824 60.3023 97.8398 58.4461 97.8398 58.4461C97.8398 58.4461 94.6257 57.8617 93.1132 66.2062C91.6007 74.5422 94.8148 75.1265 94.8148 75.1265C94.8148 75.1265 100.134 75.1351 101.484 67.7187Z" fill="#26A69A"/>
<path d="M99.2664 60.9813C100.435 62.5453 99.0515 64.857 96.8086 66.3953C96.1468 66.8508 95.2703 66.6789 95.1414 66.3008C94.7804 65.218 94.9351 63.9891 95.4164 62.9492C96.8429 59.8297 98.6734 60.1906 99.2664 60.9813Z" fill="#69F0AE"/>
<path d="M8.38759 67.9422C7.03837 60.5344 12.0313 58.6695 12.0313 58.6695C12.0313 58.6695 15.2454 58.0852 16.7579 66.4297C18.2704 74.7656 15.0563 75.35 15.0563 75.35C15.0563 75.35 9.72821 75.3586 8.38759 67.9422Z" fill="#26A69A"/>
<path d="M13.5607 61.1875C14.7123 62.0469 14.2396 63.1727 13.3717 63.9547C12.3834 64.857 11.6271 65.8453 10.7849 66.868C10.656 67.0227 10.5099 67.1945 10.3037 67.2375C9.90838 67.3234 9.59041 66.9195 9.46151 66.5328C9.09198 65.45 9.16073 64.1781 9.71073 63.1813C11.2748 60.3367 13.1139 60.8523 13.5607 61.1875Z" fill="#69F0AE"/>
<path d="M85.9291 74.9031C85.3362 78.2805 82.6291 80.6266 79.8705 80.1453C77.1119 79.6641 76.7338 76.7852 77.3268 73.4078C77.9198 70.0305 79.2518 67.4438 82.0018 67.925C84.7604 68.4063 86.5221 71.5344 85.9291 74.9031ZM26.151 74.9031C26.744 78.2805 29.451 80.6266 32.2096 80.1453C34.9682 79.6641 35.3463 76.7852 34.7534 73.4078C34.1604 70.0305 32.8284 67.4438 30.0784 67.925C27.3284 68.4063 25.5666 71.5344 26.151 74.9031Z" fill="#F44336"/>
<path d="M30.1468 72.6516C29.5195 73.3562 27.9898 74.7742 27.4484 73.6914C26.7093 72.2133 27.732 69.9789 28.9007 69.2398C30.0695 68.5008 31.0234 69.0852 31.1867 69.7469C31.3843 70.5891 30.7054 72.0156 30.1468 72.6516ZM79.0453 74.8086C78.1945 74.6797 78.0999 71.7492 80.3859 69.4461C81.4773 68.3461 83.0413 69.6523 82.646 71.4141C82.2679 73.0898 80.6007 75.0492 79.0453 74.8086Z" fill="#FFA8A4"/>
<path d="M93.8008 84.3992C88.6531 86.9774 76.8453 93.8438 55.043 93.8438C33.2406 93.8438 21.4328 86.9774 16.2852 84.3992C16.2852 84.3992 14.4375 85.3875 14.4375 86.4188V94.3336C14.4375 95.3906 14.9961 96.3617 15.907 96.9031C19.9289 99.275 32.1836 104.878 55.0516 104.878C77.9195 104.878 90.1742 99.275 94.1961 96.9031C94.6432 96.6395 95.0139 96.2639 95.2716 95.8133C95.5293 95.3627 95.6651 94.8527 95.6656 94.3336V86.4188C95.6484 85.3875 93.8008 84.3992 93.8008 84.3992Z" fill="#FFCA28"/>
<path d="M34.0314 95.2531C36.4377 95.7258 37.1682 95.9321 37.0049 97.2727C36.6697 99.911 31.1955 99.2836 27.9557 98.4328C21.2611 96.6711 19.9033 94.8149 19.9033 93.1563C19.9033 91.6352 21.0721 91.4547 22.8768 92.0907C25.0338 92.8555 28.3682 94.1446 34.0314 95.2531Z" fill="#FFF59D"/>
<path d="M93.8008 86.1351C93.8008 86.1351 79.5609 94.1961 55.043 94.1961C30.525 94.1961 16.2852 86.1351 16.2852 86.1351" stroke="#F19534" stroke-width="4" stroke-miterlimit="10" stroke-linecap="round"/>
<path d="M23.1774 42.5992C27.7492 39.3336 30.207 33.4813 30.4219 24.1656C30.4391 23.3235 30.6797 23.0742 31.1352 23.0227C31.8656 22.9453 31.9859 23.6071 31.9774 24.0797C31.7711 34.1344 30.4906 40.4164 25.4203 43.9571C25.1711 44.1289 23.3922 45.2117 22.6359 44.4641C21.7336 43.5875 22.8852 42.8055 23.1774 42.5992ZM27.3625 13.3547C27.2164 11.7992 27.5774 8.99768 31.6594 7.72581C32.8539 7.35627 33.593 7.94065 33.7305 8.39612C34.0742 9.53049 33.0774 9.97737 32.6219 10.1235C29.4852 11.1375 29.3305 12.7016 28.6859 13.6985C28.0414 14.6953 27.4141 13.8274 27.3625 13.3547ZM67.2203 40.5367C71.3539 36.8672 74.0953 32.768 75.9 23.4352C76.0633 22.6102 76.3039 22.3867 76.7508 22.4039C77.4813 22.4211 77.5156 23.1 77.4383 23.5641C75.9086 33.5156 74.4563 36.3516 69.3602 41.9977C68.7844 42.6336 67.3836 43.2094 66.593 42.5477C65.8797 41.9547 66.7047 41.0008 67.2203 40.5367ZM73.3047 13.4321C73.1586 11.8766 73.5195 9.07502 77.6016 7.80315C78.7961 7.43362 79.5352 8.01799 79.6727 8.47346C80.0164 9.60784 79.0195 10.0547 78.5641 10.2008C75.4274 11.2149 75.2727 12.7789 74.6281 13.7758C73.9922 14.7727 73.3563 13.9047 73.3047 13.4321Z" fill="#FFCA28"/>
<path d="M27.1478 61.5485C17.1619 57.0195 14.2228 45.2031 12.6588 40.0727C12.4525 39.3938 12.5556 38.7492 13.2345 38.543C13.9135 38.3367 14.3174 38.775 14.5322 39.4539C15.6666 43.175 20.0752 55.6016 29.176 59.1336C29.8377 59.3914 30.8689 60.0188 30.3103 61.093C29.9408 61.7891 28.7549 62.2789 27.1478 61.5485ZM10.897 21.1664C10.4158 20.1695 10.2181 19.2242 7.59705 18.1328C6.93533 17.8578 6.49705 17.2477 6.67752 16.5602C6.85799 15.8727 7.54549 15.357 8.54236 15.5289C11.7822 16.0875 12.4869 19.3789 12.6244 20.5219C12.7533 21.6219 11.3869 22.1633 10.897 21.1664ZM83.2478 61.5485C93.2338 57.0195 96.1728 45.2031 97.7369 40.0727C97.9431 39.3938 97.84 38.7492 97.1611 38.543C96.4822 38.3367 96.0783 38.775 95.8635 39.4539C94.7291 43.175 90.3205 55.6016 81.2197 59.1336C80.558 59.3914 79.5267 60.0188 80.0853 61.093C80.4549 61.7891 81.6408 62.2789 83.2478 61.5485ZM99.4986 21.1664C99.9799 20.1695 100.178 19.2242 102.799 18.1328C103.46 17.8578 103.899 17.2477 103.718 16.5602C103.538 15.8727 102.85 15.357 101.853 15.5289C98.6134 16.0875 97.9088 19.3789 97.7713 20.5219C97.6424 21.6219 99.0174 22.1633 99.4986 21.1664ZM51.0299 25.3945C51.5541 24.3203 52.4736 22.8508 55.4728 22.232C56.6244 21.9914 56.9595 21.493 56.8564 20.7367C56.6502 19.1641 54.6908 19.2758 53.6338 19.525C50.1103 20.35 49.3283 23.4781 49.1822 24.7156C49.0361 25.893 50.5142 26.4688 51.0299 25.3945Z" fill="#FFF59D"/>
</svg>
