<svg width="277" height="274" viewBox="0 0 277 274" fill="none" xmlns="http://www.w3.org/2000/svg">
<mask id="mask0_20_120" style="mask-type:luminance" maskUnits="userSpaceOnUse" x="0" y="0" width="277" height="274">
<path d="M0.182373 0H276.333V273.333H0.182373V0Z" fill="white"/>
</mask>
<g mask="url(#mask0_20_120)">
<path d="M90.7292 -92.7656C-12.8698 -101.818 -126.875 -27.6927 -135.151 69.5938C-142.911 160.844 -53.6771 224.875 -43.3906 231.958C-32.0834 239.818 52.4427 296.448 147.214 260.198C220.896 232.005 287.036 152.911 274.271 62.6563C260.708 -33.3698 166.115 -86.1666 90.7292 -92.7656Z" fill="#38B6FF"/>
</g>
<mask id="mask1_20_120" style="mask-type:luminance" maskUnits="userSpaceOnUse" x="11" y="13" width="176" height="175">
<path d="M11.3333 13.3854H186.01V188H11.3333V13.3854Z" fill="white"/>
</mask>
<g mask="url(#mask1_20_120)">
<mask id="mask2_20_120" style="mask-type:luminance" maskUnits="userSpaceOnUse" x="11" y="13" width="175" height="175">
<path d="M11.3228 100.849C11.3228 102.276 11.3592 103.698 11.4269 105.12C11.4998 106.542 11.604 107.964 11.7394 109.38C11.88 110.797 12.0571 112.208 12.2655 113.615C12.4738 115.026 12.7186 116.427 12.9946 117.823C13.2707 119.219 13.5832 120.609 13.9321 121.99C14.2759 123.37 14.6561 124.745 15.0675 126.104C15.4842 127.469 15.9269 128.818 16.4061 130.161C16.8853 131.5 17.4009 132.828 17.9425 134.146C18.4894 135.458 19.0675 136.76 19.6769 138.047C20.2811 139.339 20.9217 140.609 21.5936 141.865C22.2655 143.12 22.9686 144.359 23.6978 145.583C24.4321 146.802 25.1925 148.005 25.9842 149.188C26.7759 150.375 27.5936 151.536 28.4425 152.682C29.2915 153.828 30.1665 154.948 31.0675 156.052C31.9738 157.151 32.9009 158.229 33.8592 159.286C34.8175 160.344 35.7967 161.375 36.8019 162.38C37.8123 163.391 38.8436 164.375 39.8957 165.328C40.953 166.286 42.0311 167.219 43.13 168.125C44.2342 169.026 45.354 169.906 46.4998 170.755C47.6405 171.604 48.8071 172.427 49.9894 173.219C51.1769 174.01 52.38 174.771 53.5988 175.505C54.8228 176.24 56.0623 176.943 57.3175 177.615C58.5728 178.292 59.8436 178.932 61.13 179.542C62.4217 180.151 63.7238 180.729 65.0363 181.276C66.354 181.823 67.6821 182.339 69.0259 182.823C70.3644 183.302 71.7186 183.75 73.0832 184.167C74.4425 184.583 75.8175 184.964 77.1978 185.313C78.5832 185.661 79.9738 185.974 81.3696 186.255C82.7655 186.536 84.1717 186.781 85.578 186.995C86.9894 187.208 88.4061 187.385 89.8228 187.526C91.2394 187.667 92.6613 187.776 94.0832 187.849C95.5103 187.922 96.9321 187.958 98.3592 187.964C99.7863 187.964 101.208 187.932 102.635 187.865C104.057 187.797 105.479 187.698 106.896 187.563C108.318 187.427 109.729 187.255 111.14 187.047C112.552 186.844 113.958 186.604 115.354 186.328C116.755 186.052 118.146 185.745 119.531 185.401C120.911 185.057 122.286 184.682 123.651 184.276C125.015 183.865 126.37 183.422 127.713 182.943C129.057 182.469 130.39 181.958 131.708 181.417C133.026 180.875 134.328 180.302 135.62 179.698C136.911 179.094 138.187 178.458 139.443 177.786C140.703 177.12 141.948 176.422 143.172 175.693C144.396 174.964 145.599 174.208 146.786 173.422C147.979 172.635 149.146 171.818 150.292 170.974C151.437 170.125 152.568 169.255 153.672 168.354C154.776 167.453 155.854 166.531 156.917 165.578C157.974 164.625 159.01 163.646 160.021 162.641C161.031 161.641 162.015 160.609 162.979 159.557C163.937 158.505 164.875 157.432 165.781 156.333C166.687 155.234 167.568 154.12 168.422 152.979C169.276 151.839 170.099 150.677 170.896 149.495C171.693 148.313 172.458 147.115 173.198 145.896C173.932 144.677 174.64 143.443 175.318 142.188C175.995 140.932 176.64 139.667 177.25 138.38C177.864 137.094 178.448 135.797 179 134.484C179.552 133.172 180.068 131.844 180.552 130.505C181.036 129.167 181.489 127.818 181.911 126.453C182.328 125.094 182.713 123.724 183.068 122.344C183.417 120.964 183.734 119.578 184.021 118.182C184.302 116.786 184.552 115.385 184.765 113.979C184.979 112.573 185.161 111.161 185.307 109.745C185.453 108.328 185.562 106.906 185.64 105.484C185.713 104.063 185.755 102.641 185.76 101.219C185.765 99.7917 185.739 98.3698 185.672 96.9479C185.609 95.5261 185.51 94.1042 185.38 92.6875C185.245 91.2708 185.078 89.8594 184.875 88.4479C184.672 87.0417 184.432 85.6354 184.161 84.2396C183.89 82.8438 183.583 81.4531 183.245 80.0677C182.901 78.6875 182.531 77.3125 182.12 75.9479C181.713 74.5833 181.276 73.2292 180.802 71.8854C180.328 70.5469 179.818 69.2136 179.281 67.8958C178.739 66.5781 178.172 65.2761 177.568 63.9844C176.963 62.6927 176.328 61.4219 175.661 60.1615C174.995 58.9011 174.302 57.6615 173.573 56.4375C172.849 55.2136 172.088 54.0052 171.302 52.8177C170.515 51.6302 169.703 50.4636 168.859 49.3125C168.015 48.1667 167.146 47.0417 166.245 45.9323C165.349 44.8281 164.422 43.7448 163.469 42.6875C162.521 41.625 161.542 40.5938 160.542 39.5781C159.536 38.5677 158.51 37.5781 157.458 36.6198C156.406 35.6563 155.333 34.724 154.234 33.8125C153.14 32.9011 152.021 32.0208 150.88 31.1667C149.739 30.3125 148.578 29.4896 147.401 28.6875C146.219 27.8906 145.015 27.125 143.802 26.3854C142.583 25.6458 141.344 24.9375 140.094 24.2604C138.838 23.5833 137.568 22.9323 136.286 22.3177C135 21.7031 133.698 21.1198 132.385 20.5677C131.073 20.0156 129.745 19.4948 128.406 19.0052C127.068 18.5208 125.713 18.0625 124.354 17.6406C122.995 17.2188 121.62 16.8333 120.239 16.4792C118.859 16.125 117.474 15.8073 116.073 15.5208C114.677 15.2344 113.276 14.9792 111.87 14.7656C110.458 14.5469 109.047 14.3646 107.63 14.2136C106.208 14.0677 104.792 13.9531 103.364 13.875C101.943 13.7969 100.521 13.75 99.0936 13.7448C97.6665 13.7344 96.2446 13.7604 94.8175 13.8177C93.3957 13.8802 91.9738 13.974 90.5519 14.1094C89.1353 14.2396 87.7186 14.4011 86.3071 14.6042C84.8957 14.8021 83.4894 15.0365 82.0884 15.3021C80.6873 15.5729 79.2967 15.875 77.9113 16.2136C76.5259 16.5469 75.1509 16.9219 73.7863 17.3229C72.4165 17.7292 71.0623 18.1667 69.7134 18.6354C68.3696 19.1042 67.0363 19.6094 65.7186 20.1458C64.3957 20.6823 63.0884 21.25 61.7967 21.849C60.505 22.4479 59.2238 23.0781 57.9634 23.7448C56.703 24.4063 55.4582 25.099 54.229 25.8229C52.9998 26.5417 51.7915 27.2969 50.604 28.0781C49.4113 28.8646 48.2394 29.6719 47.0884 30.5156C45.9373 31.3542 44.8071 32.2188 43.6978 33.1146C42.5936 34.0104 41.505 34.9323 40.4425 35.8802C39.38 36.8281 38.3384 37.8021 37.3228 38.8021C36.3071 39.8021 35.3175 40.8281 34.354 41.875C33.3905 42.9219 32.4478 43.9896 31.5363 45.0833C30.6248 46.1771 29.7394 47.2969 28.88 48.4323C28.0259 49.5677 27.1925 50.724 26.3957 51.9063C25.5936 53.0833 24.8228 54.2761 24.078 55.4948C23.3384 56.7083 22.6248 57.9427 21.9425 59.1927C21.2603 60.4427 20.6092 61.7083 19.9894 62.9896C19.3696 64.2761 18.7863 65.5729 18.229 66.8802C17.6717 68.1927 17.1509 69.5156 16.6561 70.8542C16.1665 72.1875 15.7082 73.5365 15.2863 74.8958C14.8592 76.2552 14.4686 77.625 14.1092 79C13.755 80.3802 13.4321 81.7656 13.1405 83.1615C12.8488 84.5573 12.5936 85.9531 12.3748 87.3594C12.1561 88.7708 11.9686 90.1771 11.8175 91.5938C11.6665 93.0104 11.5467 94.4271 11.4686 95.849C11.3853 97.2708 11.3384 98.6927 11.328 100.12" fill="white"/>
</mask>
<g mask="url(#mask2_20_120)">
<path d="M185.765 13.7344H11.3279V187.964H185.765V13.7344Z" fill="#EACF08"/>
</g>
</g>
<path d="M151.454 47.0004C161.553 47.0681 169.699 55.2868 169.657 65.3754C169.615 75.4639 161.402 83.6202 151.298 83.5993C150.136 83.5837 148.985 83.4587 147.85 83.2295C126.459 136.355 90.8446 153.188 40.9956 133.677C40.0008 133.287 39.0633 133.453 38.4956 132.276C37.5789 131.047 34.5737 122.907 34.5737 122.907C34.0008 121.735 33.6206 120.058 34.6154 120.532C81.4227 142.87 114.86 125.641 137.933 77.7243C134.782 74.3493 133.027 69.9118 133.011 65.2972V65.141C133.1 55.0524 141.35 46.9379 151.454 47.0004Z" fill="#1A1A1A"/>
</svg>
