<svg width="295" height="322" viewBox="0 0 295 322" fill="none" xmlns="http://www.w3.org/2000/svg">
<mask id="mask0_20_121" style="mask-type:luminance" maskUnits="userSpaceOnUse" x="0" y="0" width="295" height="322">
<path d="M0 0H294.818V321.333H0V0Z" fill="white"/>
</mask>
<g mask="url(#mask0_20_121)">
<path d="M226.828 -43.6406C123.229 -52.6875 9.22386 21.4323 0.947816 118.724C-6.8126 209.969 82.4218 274 92.7082 281.083C104.016 288.943 188.542 345.573 283.312 309.323C356.995 281.13 423.13 202.036 410.37 111.781C396.807 15.7552 302.208 -37.0417 226.828 -43.6406Z" fill="#38B6FF"/>
</g>
<mask id="mask1_20_121" style="mask-type:luminance" maskUnits="userSpaceOnUse" x="161" y="0" width="134" height="130">
<path d="M161.333 0H294.818V129.333H161.333V0Z" fill="white"/>
</mask>
<g mask="url(#mask1_20_121)">
<path fill-rule="evenodd" clip-rule="evenodd" d="M243.209 -7.14582C125.032 -22.526 135.823 186.849 282.563 113.427C337.703 75.1667 309.334 1.54689 243.209 -7.14582Z" fill="#EACF08"/>
</g>
<mask id="mask2_20_121" style="mask-type:luminance" maskUnits="userSpaceOnUse" x="162" y="0" width="133" height="127">
<path d="M162.667 0H294.818V126.667H162.667V0Z" fill="white"/>
</mask>
<g mask="url(#mask2_20_121)">
<path fill-rule="evenodd" clip-rule="evenodd" d="M243.209 -7.14582C154 -18.6302 138.417 97.3438 198.854 123.714C217.735 129.01 243.005 126.411 274.474 110.531C322.724 77.1667 306.938 16.3281 257.49 -4.14582C253.094 -5.44791 248.302 -6.54687 243.209 -7.14582Z" fill="#F8E21D"/>
</g>
<mask id="mask3_20_121" style="mask-type:luminance" maskUnits="userSpaceOnUse" x="280" y="134" width="15" height="38">
<path d="M280 134.667H294.818V172H280V134.667Z" fill="white"/>
</mask>
<g mask="url(#mask3_20_121)">
<path fill-rule="evenodd" clip-rule="evenodd" d="M301.245 171.266C299.745 172.062 293.75 164.87 288.26 155.182C282.563 145.292 279.266 136.703 280.568 135.802C282.167 135.005 288.057 142.198 293.552 152.083C299.245 161.776 302.542 170.364 301.245 171.266Z" fill="#FCAD1C"/>
</g>
<mask id="mask4_20_121" style="mask-type:luminance" maskUnits="userSpaceOnUse" x="233" y="146" width="9" height="43">
<path d="M233.333 146.667H241.333V188.266H233.333V146.667Z" fill="white"/>
</mask>
<g mask="url(#mask4_20_121)">
<path fill-rule="evenodd" clip-rule="evenodd" d="M237.313 188.349C235.516 188.349 234.016 179.354 234.016 167.969C234.016 156.682 235.516 147.49 237.313 147.49C239.01 147.49 240.411 156.682 240.411 167.969C240.411 179.354 239.01 188.349 237.313 188.349Z" fill="#FCAD1C"/>
</g>
<path fill-rule="evenodd" clip-rule="evenodd" d="M173.38 171.266C171.781 170.365 175.078 161.776 180.875 152.083C186.568 142.198 192.261 135.005 193.761 135.802C195.359 136.703 191.859 145.292 186.365 155.182C180.573 164.87 174.88 172.063 173.38 171.266Z" fill="#FCAD1C"/>
<path fill-rule="evenodd" clip-rule="evenodd" d="M126.531 124.615C125.63 123.115 132.922 117.125 142.615 111.63C152.505 105.932 161.094 102.641 161.891 103.938C162.792 105.536 155.599 111.427 145.912 116.922C136.021 122.615 127.432 125.911 126.531 124.615Z" fill="#FCAD1C"/>
<mask id="mask5_20_121" style="mask-type:luminance" maskUnits="userSpaceOnUse" x="109" y="57" width="42" height="7">
<path d="M109.479 57.3334H150.667V64H109.479V57.3334Z" fill="white"/>
</mask>
<g mask="url(#mask5_20_121)">
<path fill-rule="evenodd" clip-rule="evenodd" d="M109.448 60.6824C109.448 58.9845 118.64 57.3855 129.828 57.3855C141.015 57.3855 150.307 58.9845 150.307 60.6824C150.307 62.4792 141.015 63.7813 129.828 63.7813C118.64 63.7813 109.448 62.4792 109.448 60.6824Z" fill="#FCAD1C"/>
</g>
<path fill-rule="evenodd" clip-rule="evenodd" d="M126.531 -3.24999C127.432 -4.74479 136.021 -1.45312 145.912 4.2448C155.599 9.93751 162.792 15.6302 161.891 17.2292C161.094 18.7292 152.505 15.2292 142.615 9.73959C132.922 4.04167 125.63 -1.74999 126.531 -3.24999Z" fill="#FCAD1C"/>
<path fill-rule="evenodd" clip-rule="evenodd" d="M209.641 42.0052C215.937 42.0052 221.031 47.2969 221.031 53.6927C221.031 60.0834 215.937 65.0782 209.641 65.0782C203.25 65.0782 198.156 60.0834 198.156 53.6927C198.156 47.2969 203.25 42.0052 209.641 42.0052Z" fill="black"/>
<path fill-rule="evenodd" clip-rule="evenodd" d="M206.943 46.599C209.844 46.599 212.042 49.0938 212.042 51.6927C212.042 54.5886 209.844 56.7865 206.943 56.7865C204.349 56.7865 201.948 54.5886 201.948 51.6927C201.948 49.0938 204.349 46.599 206.943 46.599Z" fill="white"/>
<path fill-rule="evenodd" clip-rule="evenodd" d="M213.141 57.5885C214.438 57.5885 215.537 58.6875 215.537 60.0833C215.537 61.3802 214.438 62.2812 213.141 62.2812C211.839 62.2812 210.74 61.3802 210.74 60.0833C210.74 58.6875 211.839 57.5885 213.141 57.5885Z" fill="white"/>
<path fill-rule="evenodd" clip-rule="evenodd" d="M265.38 42.0052C259.088 42.0052 253.995 47.2969 253.995 53.6927C253.995 60.0834 259.088 65.0782 265.38 65.0782C271.776 65.0782 277.068 60.0834 277.068 53.6927C277.068 47.2969 271.776 42.0052 265.38 42.0052Z" fill="black"/>
<path fill-rule="evenodd" clip-rule="evenodd" d="M268.078 46.599C265.182 46.599 262.984 49.0938 262.984 51.6927C262.984 54.5886 265.182 56.7865 268.078 56.7865C270.875 56.7865 273.073 54.5886 273.073 51.6927C273.073 49.0938 270.875 46.599 268.078 46.599Z" fill="white"/>
<path fill-rule="evenodd" clip-rule="evenodd" d="M261.886 57.5885C260.589 57.5885 259.49 58.6875 259.49 60.0833C259.49 61.3802 260.589 62.2812 261.886 62.2812C263.188 62.2812 264.281 61.3802 264.281 60.0833C264.281 58.6875 263.188 57.5885 261.886 57.5885Z" fill="white"/>
<path fill-rule="evenodd" clip-rule="evenodd" d="M198.156 68.375C202.849 68.375 206.547 70.375 206.547 72.7708C206.547 75.1667 202.849 77.1667 198.156 77.1667C193.76 77.1667 190.062 75.1667 190.062 72.7708C190.062 70.375 193.76 68.375 198.156 68.375Z" fill="white"/>
<path fill-rule="evenodd" clip-rule="evenodd" d="M276.172 68.375C280.766 68.375 284.36 70.375 284.36 72.7708C284.36 75.1667 280.766 77.1667 276.172 77.1667C271.578 77.1667 267.88 75.1667 267.88 72.7708C267.88 70.375 271.578 68.375 276.172 68.375Z" fill="white"/>
<path fill-rule="evenodd" clip-rule="evenodd" d="M229.823 68.5729H248.099V70.1718C248.099 75.1666 243.906 79.1614 239.01 79.1614C234.015 79.1614 229.823 75.1666 229.823 70.1718V68.5729Z" fill="black"/>
</svg>
